<svg xmlns="http://www.w3.org/2000/svg" width="60" height="60" viewBox="0 0 60">
  <g stroke-width=".15">
    <path d="m6.135 5.983-.195.024V18h32.4V5.94l-16.005.01c-8.803.005-16.093.021-16.2.034M21.66 30.24v8.64h16.68V21.6H21.66v8.64" fill="#FFF"/>
    <path d="M5.668 5.884c-.022.035-.024.08-.004.099.019.019-.012.07-.069.112-.078.058-.087.094-.035.147.091.093.291.05.291-.062 0-.136.158-.235.379-.237.117-.001.183-.027.161-.062-.05-.08-.672-.077-.722.004M42.18 12.06v6.12h11.97l.075-.162c.105-.225.11-11.695.005-11.925l-.07-.153H42.18v6.12M5.94 21.51c0 .079.713.09 6.06.09s6.06-.011 6.06-.09-.713-.09-6.06-.09-6.06.011-6.06.09m15.72-.03c0 .04 2.82.06 8.34.06s8.34-.02 8.34-.06-2.82-.06-8.34-.06-8.34.02-8.34.06m20.56-.02c-.022.022-.04 7.366-.04 16.32v16.28h11.76v-.21c0-.228-.089-.282-.149-.092-.023.072-.111.132-.229.154-.259.048-11.121.009-11.171-.041-.021-.022-.037-7.244-.034-16.05l.004-16.116c-.001-.15 11.363-.165 11.421-.015.059.155.158.098.158-.09v-.18H48.1c-3.212 0-5.858.018-5.88.04m11.6.504c0 .068.027.107.06.086.033-.02.06-.076.06-.124s-.027-.086-.06-.086-.06.056-.06.124M21.66 39c0 .04 2.82.06 8.34.06s8.34-.02 8.34-.06-2.82-.06-8.34-.06-8.34.02-8.34.06m-3.6 3.84c0 .04 3.421.06 10.144.06 6.747 0 10.131-.02 10.106-.06-.024-.04-3.471-.06-10.144-.06-6.698 0-10.106.02-10.106.06m20.296 1.08c0 .148.012.209.026.135a.849.849 0 0 0 0-.27c-.014-.074-.026-.013-.026.135m.012 4.98c0 2.36.007 3.325.017 2.145.009-1.18.009-3.11 0-4.29-.009-1.18-.017-.214-.017 2.145M5.94 53.934c0 .108.036.126.24.126.265 0 .322-.086.096-.143a2.64 2.64 0 0 1-.24-.073c-.069-.026-.096-.001-.096.09m32.13.004c-.11.045-.111.053-.015.092.123.05.285 0 .285-.088 0-.072-.101-.074-.27-.004" fill="#FFF"/>
    <path d="M5.94 37.708v16.108l.24.072c.132.04.24.095.24.122 0 .028 7.116.051 15.814.051 9.593 0 15.8-.022 15.779-.055-.019-.03.047-.073.147-.095l.18-.04V42.9H18.06V21.6H5.94v16.108m36.421-16.003-.004 16.116c-.003 8.806.013 16.028.034 16.05.081.081 11.327.045 11.355-.037a.52.52 0 0 1 .11-.161c.105-.105.13-31.688.025-31.623-.033.02-.06-.018-.06-.086 0-.068.027-.124.06-.124s.006-.054-.06-.12c-.176-.176-11.46-.191-11.459-.015" fill="#FFF"/>
    <path d="M5.94 18.09c0 .08 1.84.09 16.2.09s16.2-.01 16.2-.09S36.5 18 22.14 18s-16.2.01-16.2.09m19.875 3.495c2.302.009 6.068.009 8.37 0 2.302-.009.418-.016-4.185-.016-4.604 0-6.487.007-4.185.016m0 17.34c2.302.009 6.068.009 8.37 0 2.302-.009.418-.016-4.185-.016-4.604 0-6.487.007-4.185.016" fill="#FFF"/>
  </g>
</svg>
