<svg xmlns="http://www.w3.org/2000/svg" width="60" height="60" viewBox="0 0 60 60"><path d="m6.136 5.984 -0.196 0.024V18h32.4V5.94l-16.006 0.01c-8.802 0.006 -16.092 0.02 -16.2 0.034M21.66 30.24v8.64h16.68V21.6h-16.68v8.64" fill="#1d1836"/><path d="M5.668 5.884c-0.022 0.036 -0.024 0.08 -0.004 0.1 0.02 0.02 -0.012 0.07 -0.07 0.112 -0.078 0.058 -0.088 0.094 -0.036 0.146 0.092 0.092 0.292 0.05 0.292 -0.062 0 -0.136 0.158 -0.236 0.378 -0.238 0.116 -0.002 0.184 -0.026 0.162 -0.062 -0.05 -0.08 -0.672 -0.076 -0.722 0.004M42.18 12.06v6.12h11.972l0.076 -0.162c0.104 -0.226 0.11 -11.696 0.006 -11.924l-0.07 -0.152H42.18v6.12M5.94 21.51c0 0.08 0.714 0.09 6.06 0.09s6.06 -0.01 6.06 -0.09 -0.714 -0.09 -6.06 -0.09 -6.06 0.01 -6.06 0.09m15.72 -0.03c0 0.04 2.82 0.06 8.34 0.06s8.34 -0.02 8.34 -0.06 -2.82 -0.06 -8.34 -0.06 -8.34 0.02 -8.34 0.06m20.56 -0.02c-0.022 0.022 -0.04 7.366 -0.04 16.32v16.28h11.76v-0.21c0 -0.228 -0.088 -0.282 -0.15 -0.092 -0.022 0.072 -0.112 0.132 -0.23 0.154 -0.26 0.048 -11.122 0.008 -11.17 -0.04 -0.022 -0.022 -0.036 -7.244 -0.034 -16.05l0.004 -16.116c-0.002 -0.15 11.364 -0.166 11.422 -0.016 0.06 0.154 0.158 0.098 0.158 -0.09v-0.18h-5.84c-3.212 0 -5.858 0.018 -5.88 0.04m11.6 0.504c0 0.068 0.028 0.106 0.06 0.086 0.034 -0.02 0.06 -0.076 0.06 -0.124s-0.028 -0.086 -0.06 -0.086c-0.034 0 -0.06 0.056 -0.06 0.124M21.66 39c0 0.04 2.82 0.06 8.34 0.06s8.34 -0.02 8.34 -0.06 -2.82 -0.06 -8.34 -0.06 -8.34 0.02 -8.34 0.06m-3.6 3.84c0 0.04 3.422 0.06 10.144 0.06 6.746 0 10.132 -0.02 10.106 -0.06 -0.024 -0.04 -3.47 -0.06 -10.144 -0.06 -6.698 0 -10.106 0.02 -10.106 0.06m20.296 1.08c0 0.148 0.012 0.21 0.026 0.136a0.85 0.85 0 0 0 0 -0.27c-0.014 -0.074 -0.026 -0.014 -0.026 0.136m0.012 4.98c0 2.36 0.008 3.324 0.016 2.146 0.01 -1.18 0.01 -3.11 0 -4.29 -0.01 -1.18 -0.016 -0.214 -0.016 2.146M5.94 53.934c0 0.108 0.036 0.126 0.24 0.126 0.264 0 0.322 -0.086 0.096 -0.144a2.64 2.64 0 0 1 -0.24 -0.072c-0.068 -0.026 -0.096 -0.002 -0.096 0.09m32.13 0.004c-0.11 0.046 -0.112 0.052 -0.016 0.092 0.124 0.05 0.286 0 0.286 -0.088 0 -0.072 -0.1 -0.074 -0.27 -0.004" fill="#939494"/><path d="M5.94 37.708v16.108l0.24 0.072c0.132 0.04 0.24 0.094 0.24 0.122 0 0.028 7.116 0.05 15.814 0.05 9.594 0 15.8 -0.022 15.78 -0.056 -0.018 -0.03 0.048 -0.074 0.146 -0.094l0.18 -0.04V42.9H18.06V21.6H5.94v16.108m36.42 -16.002 -0.004 16.116c-0.002 8.806 0.012 16.028 0.034 16.05 0.082 0.082 11.328 0.044 11.354 -0.036a0.522 0.522 0 0 1 0.11 -0.16c0.106 -0.106 0.13 -31.688 0.024 -31.624 -0.034 0.02 -0.06 -0.018 -0.06 -0.086s0.028 -0.124 0.06 -0.124c0.034 0 0.006 -0.054 -0.06 -0.12 -0.176 -0.176 -11.46 -0.19 -11.46 -0.016" fill="#05bb64"/><path d="M5.94 18.09c0 0.08 1.84 0.09 16.2 0.09s16.2 -0.01 16.2 -0.09S36.5 18 22.14 18s-16.2 0.01 -16.2 0.09m19.876 3.496c2.302 0.008 6.068 0.008 8.37 0 2.302 -0.008 0.418 -0.016 -4.186 -0.016s-6.486 0.008 -4.186 0.016m0 17.34c2.302 0.008 6.068 0.008 8.37 0 2.302 -0.008 0.418 -0.016 -4.186 -0.016s-6.486 0.008 -4.186 0.016" fill="#444"/></svg>