 <svg
      id="svg"
      xmlns="http://www.w3.org/2000/svg"
      xmlnsXlink="http://www.w3.org/1999/xlink"
      width="400"
      height="400"
      viewBox="0, 0, 400,400"
    >
      <g id="svgg">
        <path
          id="path0"
          d="M40.900 39.889 L 39.600 40.051 39.600 80.025 L 39.600 120.000 147.600 120.000 L 255.600 120.000 255.600 79.800 L 255.600 39.600 148.900 39.664 C 90.215 39.699,41.615 39.801,40.900 39.889 M144.400 201.600 L 144.400 259.200 200.000 259.200 L 255.600 259.200 255.600 201.600 L 255.600 144.000 200.000 144.000 L 144.400 144.000 144.400 201.600 "
          stroke="none"
          fill="#FFF"
          fillRule="evenodd"
        />
        <path
          id="path1"
          d="M37.784 39.227 C 37.639 39.461,37.625 39.758,37.754 39.887 C 37.882 40.016,37.675 40.352,37.294 40.634 C 36.772 41.019,36.713 41.261,37.058 41.611 C 37.667 42.229,39.000 41.943,39.000 41.195 C 39.000 40.288,40.054 39.627,41.524 39.613 C 42.302 39.605,42.745 39.435,42.600 39.200 C 42.268 38.664,38.117 38.687,37.784 39.227 M281.200 80.400 L 281.200 121.200 321.100 121.197 L 361.000 121.194 361.500 120.117 C 362.197 118.615,362.232 42.147,361.536 40.619 L 361.072 39.600 321.136 39.600 L 281.200 39.600 281.200 80.400 M39.600 143.400 C 39.600 143.929,44.356 144.000,80.000 144.000 C 115.644 144.000,120.400 143.929,120.400 143.400 C 120.400 142.871,115.644 142.800,80.000 142.800 C 44.356 142.800,39.600 142.871,39.600 143.400 M144.400 143.200 C 144.400 143.465,163.200 143.600,200.000 143.600 C 236.800 143.600,255.600 143.465,255.600 143.200 C 255.600 142.935,236.800 142.800,200.000 142.800 C 163.200 142.800,144.400 142.935,144.400 143.200 M281.467 143.067 C 281.320 143.213,281.200 192.173,281.200 251.867 L 281.200 360.400 320.400 360.400 L 359.600 360.400 359.600 359.000 C 359.600 357.483,359.007 357.117,358.604 358.386 C 358.451 358.868,357.861 359.264,357.077 359.410 C 355.348 359.733,282.935 359.469,282.605 359.139 C 282.462 358.995,282.359 310.845,282.377 252.139 C 282.395 193.432,282.407 145.085,282.405 144.700 C 282.398 143.700,358.161 143.600,358.545 144.600 C 358.940 145.631,359.600 145.256,359.600 144.000 L 359.600 142.800 320.667 142.800 C 299.253 142.800,281.613 142.920,281.467 143.067 M358.800 146.424 C 358.800 146.877,358.980 147.136,359.200 147.000 C 359.420 146.864,359.600 146.493,359.600 146.176 C 359.600 145.859,359.420 145.600,359.200 145.600 C 358.980 145.600,358.800 145.971,358.800 146.424 M144.400 260.000 C 144.400 260.265,163.200 260.400,200.000 260.400 C 236.800 260.400,255.600 260.265,255.600 260.000 C 255.600 259.735,236.800 259.600,200.000 259.600 C 163.200 259.600,144.400 259.735,144.400 260.000 M120.400 285.600 C 120.400 285.865,143.208 286.000,188.024 286.000 C 233.004 286.000,255.564 285.866,255.400 285.600 C 255.237 285.336,232.263 285.200,187.776 285.200 C 143.125 285.200,120.400 285.335,120.400 285.600 M255.709 292.800 C 255.709 293.790,255.787 294.195,255.882 293.700 C 255.978 293.205,255.978 292.395,255.882 291.900 C 255.787 291.405,255.709 291.810,255.709 292.800 M255.790 326.000 C 255.790 341.730,255.839 348.165,255.900 340.300 C 255.960 332.435,255.960 319.565,255.900 311.700 C 255.839 303.835,255.790 310.270,255.790 326.000 M39.600 359.557 C 39.600 360.274,39.840 360.400,41.200 360.400 C 42.964 360.400,43.348 359.824,41.837 359.445 C 41.308 359.312,40.588 359.093,40.237 358.959 C 39.779 358.783,39.600 358.951,39.600 359.557 M253.800 359.585 C 253.066 359.887,253.057 359.938,253.700 360.200 C 254.522 360.535,255.600 360.202,255.600 359.613 C 255.600 359.131,254.929 359.121,253.800 359.585 "
          stroke="none"
          fill="#939494"
          fillRule="evenodd"
        />
        <path
          id="path2"
          d="M39.600 251.384 L 39.600 358.768 41.200 359.247 C 42.080 359.511,42.800 359.878,42.800 360.063 C 42.800 360.248,90.241 360.400,148.224 360.400 C 212.179 360.400,253.558 360.255,253.420 360.033 C 253.295 359.830,253.735 359.546,254.397 359.401 L 255.600 359.136 255.600 322.568 L 255.600 286.000 188.000 286.000 L 120.400 286.000 120.400 215.000 L 120.400 144.000 80.000 144.000 L 39.600 144.000 39.600 251.384 M282.405 144.700 C 282.407 145.085,282.395 193.432,282.377 252.139 C 282.359 310.845,282.462 358.995,282.605 359.139 C 283.147 359.681,358.120 359.438,358.302 358.893 C 358.395 358.614,358.725 358.132,359.036 357.821 C 359.738 357.119,359.902 146.566,359.200 147.000 C 358.980 147.136,358.800 146.877,358.800 146.424 C 358.800 145.971,358.980 145.600,359.200 145.600 C 359.420 145.600,359.240 145.240,358.800 144.800 C 357.625 143.625,282.397 143.527,282.405 144.700 "
          stroke="none"
          fill="#05bb64"
          fillRule="evenodd"
        />
        <path
          id="path3"
          d="M39.600 120.600 C 39.600 121.132,51.867 121.200,147.600 121.200 C 243.333 121.200,255.600 121.132,255.600 120.600 C 255.600 120.068,243.333 120.000,147.600 120.000 C 51.867 120.000,39.600 120.068,39.600 120.600 M172.100 143.900 C 187.445 143.958,212.555 143.958,227.900 143.900 C 243.245 143.842,230.690 143.794,200.000 143.794 C 169.310 143.794,156.755 143.842,172.100 143.900 M172.100 259.500 C 187.445 259.558,212.555 259.558,227.900 259.500 C 243.245 259.442,230.690 259.394,200.000 259.394 C 169.310 259.394,156.755 259.442,172.100 259.500 "
          stroke="none"
          fill="#444444"
          fillRule="evenodd"
        />
      </g>
    </svg>